<?xml version="1.0" standalone="no"?>
<!DOCTYPE svg PUBLIC "-//W3C//DTD SVG 20010904//EN"
 "http://www.w3.org/TR/2001/REC-SVG-20010904/DTD/svg10.dtd">
<svg version="1.0" xmlns="http://www.w3.org/2000/svg"
 width="52.000000pt" height="52.000000pt" viewBox="0 0 52.000000 52.000000"
 preserveAspectRatio="xMidYMid meet">

<g transform="translate(0.000000,52.000000) scale(0.100000,-0.100000)"
fill="inherit" stroke="none">
<path d="M20 500 c-19 -19 -20 -33 -20 -200 0 -228 -5 -220 145 -220 58 0 105
3 105 8 -1 25 -22 31 -110 34 l-95 3 0 145 0 145 205 0 205 0 3 -75 c2 -62 6
-78 22 -88 19 -12 20 -9 20 78 0 127 -4 130 -160 130 -73 0 -120 4 -120 10 0
6 -9 19 -20 30 -16 16 -33 20 -90 20 -57 0 -74 -4 -90 -20z"/>
<path d="M361 227 c-69 -24 -98 -116 -54 -175 39 -53 134 -60 177 -13 80 89
-10 227 -123 188z m59 -67 c0 -13 7 -20 20 -20 13 0 20 -7 20 -20 0 -13 -7
-20 -20 -20 -13 0 -20 -7 -20 -20 0 -13 -7 -20 -20 -20 -13 0 -20 7 -20 20 0
13 -7 20 -20 20 -13 0 -20 7 -20 20 0 13 7 20 20 20 13 0 20 7 20 20 0 13 7
20 20 20 13 0 20 -7 20 -20z"/>
</g>
</svg>
