<svg width="100" height="100" viewBox="0 0 100 100" fill="none" xmlns="http://www.w3.org/2000/svg">
<path d="M45.8333 70.8333H54.1666V45.8333H45.8333V70.8333ZM49.9999 8.33325C26.9791 8.33325 8.33325 26.9791 8.33325 49.9999C8.33325 73.0208 26.9791 91.6666 49.9999 91.6666C73.0208 91.6666 91.6666 73.0208 91.6666 49.9999C91.6666 26.9791 73.0208 8.33325 49.9999 8.33325ZM49.9999 83.3333C31.6249 83.3333 16.6666 68.3749 16.6666 49.9999C16.6666 31.6249 31.6249 16.6666 49.9999 16.6666C68.3749 16.6666 83.3333 31.6249 83.3333 49.9999C83.3333 68.3749 68.3749 83.3333 49.9999 83.3333ZM45.8333 37.4999H54.1666V29.1666H45.8333V37.4999Z" fill="inherit"/>
</svg>
