<?xml version="1.0" encoding="utf-8"?>
<!-- Generator: Adobe Illustrator 19.0.0, SVG Export Plug-In . SVG Version: 6.00 Build 0)  -->
<svg version="1.1" id="Layer_1" xmlns="http://www.w3.org/2000/svg" xmlns:xlink="http://www.w3.org/1999/xlink" x="0px" y="0px"
	 fill-rule="evenodd" viewBox="0 0 96 96" style="enable-background:new 0 0 96 96;" xml:space="preserve">
<g id="XMLID_1_">
	<path id="XMLID_6_" class="st0" d="M67,52.6c-3.6,0-7,1.4-9.5,3.9l-2.6-4l2.7-4.3c4.1-6.6,9.2-14.7,14.8-23.7l1.4-2.3l-9-5.9L48,42
		L31.3,16.3l-9,5.9l1.4,2.3c5.6,9,10.7,17.2,14.8,23.7l2.7,4.3l-2.6,4c-2.5-2.5-5.9-3.9-9.5-3.9c-7.5,0-13.5,6.1-13.5,13.5
		S21.6,79.7,29,79.7c7.2,0,10.5-3.2,19-16.3c8.5,13.1,11.7,16.3,19,16.3c7.5,0,13.5-6.1,13.5-13.5S74.4,52.6,67,52.6z M29,71.5
		c-3,0-5.4-2.4-5.4-5.4c0-3,2.4-5.4,5.4-5.4s5.4,2.4,5.4,5.4C34.5,69.1,32,71.5,29,71.5z M67,71.5c-3,0-5.4-2.4-5.4-5.4
		c0-3,2.4-5.4,5.4-5.4c3,0,5.4,2.4,5.4,5.4C72.4,69.1,69.9,71.5,67,71.5z"/>
</g>
</svg>
