<svg width="84" height="100" viewBox="0 0 84 100" fill="inherit" xmlns="http://www.w3.org/2000/svg">
<path d="M70.75 33.3333H13.25C10.75 33.3333 8.66667 35.4166 9.08334 37.9166L15.75 92.5C16.1667 96.6667 19.9167 99.5833 24.0833 99.5833H59.5C63.6667 99.5833 67.4167 96.6667 67.8333 92.5L74.5 37.9166C74.9167 35.4166 73.25 33.3333 70.75 33.3333Z"/>
<path d="M75.3333 8.33333H54.5C54.5 3.75 50.75 0 46.1667 0H37.8333C33.25 0 29.5 3.75 29.5 8.33333H8.66667C4.08333 8.33333 0.333334 12.0833 0.333334 16.6667V20.8333C0.333334 23.3333 2 25 4.5 25H79.5C82 25 83.6667 23.3333 83.6667 20.8333V16.6667C83.6667 12.0833 79.9167 8.33333 75.3333 8.33333Z"/>
</svg>
