<svg width="50" height="50" viewBox="0 0 50 50" fill="none" xmlns="http://www.w3.org/2000/svg">
<path d="M42.5 48.7249H7.5C3.635 48.7249 0.5 45.4599 0.5 41.4299V32.3149C0.5 31.3099 1.285 30.4899 2.25 30.4899H5.75C6.715 30.4899 7.5 31.3049 7.5 32.3149V37.7849C7.5 39.7999 9.065 41.4299 11 41.4299H39C40.935 41.4299 42.5 39.7949 42.5 37.7849V32.3149C42.5 31.3099 43.285 30.4899 44.25 30.4899H47.75C48.715 30.4899 49.5 31.3049 49.5 32.3149V41.4299C49.5 45.4599 46.365 48.7249 42.5 48.7249ZM39.225 22.4599C38.515 23.1999 37.37 23.1999 36.66 22.4599L28.5 13.9549V32.3149C28.5 33.3199 27.715 34.1399 26.75 34.1399H23.25C22.285 34.1399 21.5 33.3249 21.5 32.3149V13.9549L13.34 22.4599C12.63 23.1999 11.485 23.1999 10.775 22.4599L8.21 19.7899C7.5 19.0499 7.5 17.8549 8.21 17.1199L22.66 2.0549C22.72 1.9899 23.845 1.2749 24.98 1.2749C26.125 1.2749 27.275 1.9899 27.34 2.0549L41.795 17.1149C42.505 17.8549 42.505 19.0499 41.795 19.7849L39.225 22.4599Z" fill="inherit"/>
</svg>
